<?xml version="1.0" encoding="UTF-8" standalone="no"?>
<!DOCTYPE svg PUBLIC "-//W3C//DTD SVG 1.0//EN" "http://www.w3.org/TR/2001/PR-SVG-20010719/DTD/svg10.dtd">
<svg width="46cm" height="56cm" viewBox="87 -49 904 1108" xmlns="http://www.w3.org/2000/svg" xmlns:xlink="http://www.w3.org/1999/xlink">
  <g>
    <path style="fill: #e2ff9d" d="M 88.125 87.3333 C 122.465,69.8333 139.635,64 173.975,64 C 208.315,64 225.485,69.8333 259.825,87.3333 L 259.825,180.667 C 225.485,198.167 208.315,204 173.975,204 C 139.635,204 122.465,198.167 88.125,180.667 L 88.125,87.3333z"/>
    <path style="fill: none; fill-opacity:0; stroke-width: 2; stroke: #000000" d="M 88.125 87.3333 C 122.465,69.8333 139.635,64 173.975,64 C 208.315,64 225.485,69.8333 259.825,87.3333 L 259.825,180.667 C 225.485,198.167 208.315,204 173.975,204 C 139.635,204 122.465,198.167 88.125,180.667 L 88.125,87.3333"/>
    <path style="fill: none; fill-opacity:0; stroke-width: 2; stroke: #000000" d="M 88.125 87.3333 C 122.465,104.833 139.635,110.667 173.975,110.667 C 208.315,110.667 225.485,104.833 259.825,87.3333"/>
    <text font-size="12.8" style="fill: #000000;text-anchor:middle;font-family:sans-serif;font-style:normal;font-weight:normal" x="173.975" y="141.667">
      <tspan x="173.975" y="141.667">File with search results </tspan>
      <tspan x="173.975" y="157.667">in MEDLINE format</tspan>
    </text>
  </g>
  <g>
    <path style="fill: #e2ff9d" d="M 369.174 101.4 L 486.824,101.4 L 486.824,147 C 463.294,139.4 451.529,139.4 427.999,147 C 404.469,154.6 392.704,154.6 369.174,147 L 369.174,101.4z"/>
    <path style="fill: none; fill-opacity:0; stroke-width: 2; stroke: #000000" d="M 369.174 101.4 L 486.824,101.4 L 486.824,147 C 463.294,139.4 451.529,139.4 427.999,147 C 404.469,154.6 392.704,154.6 369.174,147 L 369.174,101.4"/>
    <text font-size="12.8" style="fill: #000000;text-anchor:middle;font-family:sans-serif;font-style:normal;font-weight:normal" x="427.999" y="116.4">
      <tspan x="427.999" y="116.4">Query in pubmed</tspan>
      <tspan x="427.999" y="132.4">format</tspan>
    </text>
  </g>
  <g>
    <path style="fill: #e2ff9d" d="M 625.301 102.401 L 750.701,102.401 L 750.701,148.001 C 725.621,140.401 713.081,140.401 688.001,148.001 C 662.921,155.601 650.381,155.601 625.301,148.001 L 625.301,102.401z"/>
    <path style="fill: none; fill-opacity:0; stroke-width: 2; stroke: #000000" d="M 625.301 102.401 L 750.701,102.401 L 750.701,148.001 C 725.621,140.401 713.081,140.401 688.001,148.001 C 662.921,155.601 650.381,155.601 625.301,148.001 L 625.301,102.401"/>
    <text font-size="12.8" style="fill: #000000;text-anchor:middle;font-family:sans-serif;font-style:normal;font-weight:normal" x="688.001" y="117.401">
      <tspan x="688.001" y="117.401">Query in mongodb</tspan>
      <tspan x="688.001" y="133.401">format</tspan>
    </text>
  </g>
  <g>
    <rect style="fill: #e2ff9d" x="126" y="349" width="98" height="38"/>
    <rect style="fill: none; fill-opacity:0; stroke-width: 2; stroke: #000000" x="126" y="349" width="98" height="38"/>
    <text font-size="12.8" style="fill: #000000;text-anchor:middle;font-family:sans-serif;font-style:normal;font-weight:normal" x="175" y="371.9">
      <tspan x="175" y="371.9">load_raw.py</tspan>
    </text>
  </g>
  <g>
    <rect style="fill: #e2ff9d" x="345.674" y="350" width="164.65" height="38"/>
    <rect style="fill: none; fill-opacity:0; stroke-width: 2; stroke: #000000" x="345.674" y="350" width="164.65" height="38"/>
    <text font-size="12.8" style="fill: #000000;text-anchor:middle;font-family:sans-serif;font-style:normal;font-weight:normal" x="427.999" y="372.9">
      <tspan x="427.999" y="372.9">load_from_pubmed.py</tspan>
    </text>
  </g>
  <g>
    <rect style="fill: #e2ff9d" x="598.8" y="568" width="180.4" height="38"/>
    <rect style="fill: none; fill-opacity:0; stroke-width: 2; stroke: #000000" x="598.8" y="568" width="180.4" height="38"/>
    <text font-size="12.8" style="fill: #000000;text-anchor:middle;font-family:sans-serif;font-style:normal;font-weight:normal" x="689" y="590.9">
      <tspan x="689" y="590.9">query2mesh_network.py</tspan>
    </text>
  </g>
  <g>
    <path style="fill: #e2ff9d" d="M 366.728 559.456 L 451.8,559.456 C 464.56,569.256 468.814,574.156 468.814,583.956 C 468.814,593.756 464.56,598.656 451.8,608.456 L 366.728,608.456 C 353.968,598.656 349.714,593.756 349.714,583.956 C 349.714,574.156 353.968,569.256 366.728,559.456z"/>
    <path style="fill: none; fill-opacity:0; stroke-width: 2; stroke: #000000" d="M 366.728 559.456 L 451.8,559.456 C 464.56,569.256 468.814,574.156 468.814,583.956 C 468.814,593.756 464.56,598.656 451.8,608.456 L 366.728,608.456 C 353.968,598.656 349.714,593.756 349.714,583.956 C 349.714,574.156 353.968,569.256 366.728,559.456"/>
    <path style="fill: none; fill-opacity:0; stroke-width: 2; stroke: #000000" d="M 451.8 559.456 C 439.039,569.256 434.785,574.156 434.785,583.956 C 434.785,593.756 439.039,598.656 451.8,608.456"/>
    <text font-size="12.8" style="fill: #000000;text-anchor:middle;font-family:sans-serif;font-style:normal;font-weight:normal" x="400.757" y="579.956">
      <tspan x="400.757" y="579.956">Cache</tspan>
      <tspan x="400.757" y="595.956">mongodb</tspan>
    </text>
  </g>
  <g>
    <line style="fill: none; fill-opacity:0; stroke-width: 2; stroke: #000000" x1="198.266" y1="387.995" x2="389.325" y2="552.197"/>
    <polygon style="fill: #000000" points="395.013,557.086 384.17,554.36 389.325,552.197 390.688,546.776 "/>
    <polygon style="fill: none; fill-opacity:0; stroke-width: 2; stroke: #000000" points="395.013,557.086 384.17,554.36 389.325,552.197 390.688,546.776 "/>
  </g>
  <g>
    <line style="fill: none; fill-opacity:0; stroke-width: 2; stroke: #000000" x1="427.839" y1="389.001" x2="426.56" y2="548.768"/>
    <polygon style="fill: #000000" points="426.5,556.267 421.58,546.228 426.56,548.768 431.58,546.308 "/>
    <polygon style="fill: none; fill-opacity:0; stroke-width: 2; stroke: #000000" points="426.5,556.267 421.58,546.228 426.56,548.768 431.58,546.308 "/>
  </g>
  <g>
    <line style="fill: none; fill-opacity:0; stroke-width: 2; stroke: #000000" x1="174.286" y1="204.983" x2="174.87" y2="338.262"/>
    <polygon style="fill: #000000" points="174.903,345.762 169.859,335.784 174.87,338.262 179.859,335.74 "/>
    <polygon style="fill: none; fill-opacity:0; stroke-width: 2; stroke: #000000" points="174.903,345.762 169.859,335.784 174.87,338.262 179.859,335.74 "/>
  </g>
  <g>
    <line style="fill: none; fill-opacity:0; stroke-width: 2; stroke: #000000" x1="427.999" y1="148.034" x2="427.999" y2="339.377"/>
    <polygon style="fill: #000000" points="427.999,346.877 422.999,336.877 427.999,339.377 432.999,336.877 "/>
    <polygon style="fill: none; fill-opacity:0; stroke-width: 2; stroke: #000000" points="427.999,346.877 422.999,336.877 427.999,339.377 432.999,336.877 "/>
  </g>
  <g>
    <line style="fill: none; fill-opacity:0; stroke-width: 2; stroke: #000000" x1="688.045" y1="149.03" x2="688.935" y2="557.305"/>
    <polygon style="fill: #000000" points="688.952,564.805 683.93,554.816 688.935,557.305 693.93,554.794 "/>
    <polygon style="fill: none; fill-opacity:0; stroke-width: 2; stroke: #000000" points="688.952,564.805 683.93,554.816 688.935,557.305 693.93,554.794 "/>
  </g>
  <g>
    <line style="fill: none; fill-opacity:0; stroke-width: 2; stroke: #000000" x1="469.782" y1="584.46" x2="588.12" y2="585.831"/>
    <polygon style="fill: #000000" points="595.62,585.918 585.562,590.802 588.12,585.831 585.678,580.803 "/>
    <polygon style="fill: none; fill-opacity:0; stroke-width: 2; stroke: #000000" points="595.62,585.918 585.562,590.802 588.12,585.831 585.678,580.803 "/>
  </g>
  <g>
    <ellipse style="fill: #e2ff9d" cx="687" cy="734.5" rx="30.8302" ry="26.5"/>
    <ellipse style="fill: none; fill-opacity:0; stroke-width: 2; stroke: #000000" cx="687" cy="734.5" rx="30.8302" ry="26.5"/>
    <line style="fill: none; fill-opacity:0; stroke-width: 2; stroke: #000000" x1="687" y1="761" x2="717.83" y2="761"/>
    <text font-size="12.8" style="fill: #000000;text-anchor:middle;font-family:sans-serif;font-style:normal;font-weight:normal" x="687" y="738.5">
      <tspan x="687" y="738.5">pickle</tspan>
    </text>
  </g>
  <g>
    <line style="fill: none; fill-opacity:0; stroke-width: 2; stroke: #000000" x1="688.738" y1="607.005" x2="687.557" y2="697.265"/>
    <polygon style="fill: #000000" points="687.459,704.764 682.59,694.699 687.557,697.265 692.589,694.83 "/>
    <polygon style="fill: none; fill-opacity:0; stroke-width: 2; stroke: #000000" points="687.459,704.764 682.59,694.699 687.557,697.265 692.589,694.83 "/>
  </g>
  <g>
    <ellipse style="fill: #e2ff9d" cx="684" cy="-18.9994" rx="6" ry="6"/>
    <ellipse style="fill: none; fill-opacity:0; stroke-width: 2; stroke: #000000" cx="684" cy="-18.9994" rx="6" ry="6"/>
    <line style="fill: none; fill-opacity:0; stroke-width: 2; stroke: #000000" x1="660" y1="-6.9994" x2="708" y2="-6.9994"/>
    <line style="fill: none; fill-opacity:0; stroke-width: 2; stroke: #000000" x1="684" y1="-12.9994" x2="684" y2="17.0006"/>
    <line style="fill: none; fill-opacity:0; stroke-width: 2; stroke: #000000" x1="684" y1="17.0006" x2="660" y2="43.0006"/>
    <line style="fill: none; fill-opacity:0; stroke-width: 2; stroke: #000000" x1="684" y1="17.0006" x2="708" y2="43.0006"/>
    <text font-size="12.8" style="fill: #000000;text-anchor:middle;font-family:sans-serif;font-style:normal;font-weight:normal" x="684" y="66.9006">
      <tspan x="684" y="66.9006">User</tspan>
    </text>
  </g>
  <g>
    <ellipse style="fill: #e2ff9d" cx="431.35" cy="-27.6998" rx="6" ry="6"/>
    <ellipse style="fill: none; fill-opacity:0; stroke-width: 2; stroke: #000000" cx="431.35" cy="-27.6998" rx="6" ry="6"/>
    <line style="fill: none; fill-opacity:0; stroke-width: 2; stroke: #000000" x1="407.35" y1="-15.6998" x2="455.35" y2="-15.6998"/>
    <line style="fill: none; fill-opacity:0; stroke-width: 2; stroke: #000000" x1="431.35" y1="-21.6998" x2="431.35" y2="8.3002"/>
    <line style="fill: none; fill-opacity:0; stroke-width: 2; stroke: #000000" x1="431.35" y1="8.3002" x2="407.35" y2="34.3002"/>
    <line style="fill: none; fill-opacity:0; stroke-width: 2; stroke: #000000" x1="431.35" y1="8.3002" x2="455.35" y2="34.3002"/>
    <text font-size="12.8" style="fill: #000000;text-anchor:middle;font-family:sans-serif;font-style:normal;font-weight:normal" x="431.35" y="58.2002">
      <tspan x="431.35" y="58.2002">User</tspan>
    </text>
  </g>
  <g>
    <ellipse style="fill: #e2ff9d" cx="178.7" cy="-29.4" rx="6" ry="6"/>
    <ellipse style="fill: none; fill-opacity:0; stroke-width: 2; stroke: #000000" cx="178.7" cy="-29.4" rx="6" ry="6"/>
    <line style="fill: none; fill-opacity:0; stroke-width: 2; stroke: #000000" x1="154.7" y1="-17.4" x2="202.7" y2="-17.4"/>
    <line style="fill: none; fill-opacity:0; stroke-width: 2; stroke: #000000" x1="178.7" y1="-23.4" x2="178.7" y2="6.6"/>
    <line style="fill: none; fill-opacity:0; stroke-width: 2; stroke: #000000" x1="178.7" y1="6.6" x2="154.7" y2="32.6"/>
    <line style="fill: none; fill-opacity:0; stroke-width: 2; stroke: #000000" x1="178.7" y1="6.6" x2="202.7" y2="32.6"/>
    <text font-size="12.8" style="fill: #000000;text-anchor:middle;font-family:sans-serif;font-style:normal;font-weight:normal" x="178.7" y="56.5">
      <tspan x="178.7" y="56.5">User</tspan>
    </text>
  </g>
  <g>
    <rect style="fill: #e2ff9d" x="489.212" y="1004" width="114.15" height="54"/>
    <rect style="fill: none; fill-opacity:0; stroke-width: 2; stroke: #000000" x="489.212" y="1004" width="114.15" height="54"/>
    <text font-size="12.8" style="fill: #000000;text-anchor:middle;font-family:sans-serif;font-style:normal;font-weight:normal" x="546.287" y="1026.9">
      <tspan x="546.287" y="1026.9">export to</tspan>
      <tspan x="546.287" y="1042.9">csv file</tspan>
    </text>
  </g>
  <g>
    <rect style="fill: #e2ff9d" x="633.855" y="1004" width="84.5" height="54"/>
    <rect style="fill: none; fill-opacity:0; stroke-width: 2; stroke: #000000" x="633.855" y="1004" width="84.5" height="54"/>
    <text font-size="12.8" style="fill: #000000;text-anchor:middle;font-family:sans-serif;font-style:normal;font-weight:normal" x="676.105" y="1026.9">
      <tspan x="676.105" y="1026.9">export to </tspan>
      <tspan x="676.105" y="1042.9">sif file</tspan>
    </text>
  </g>
  <g>
    <path style="fill: #e2ff9d" d="M 876.769 668 L 964.461,668 C 977.615,678 982,683 982,693 C 982,703 977.615,708 964.461,718 L 876.769,718 L 859.23,693 L 876.769,668z"/>
    <path style="fill: none; fill-opacity:0; stroke-width: 2; stroke: #000000" d="M 876.769 668 L 964.461,668 C 977.615,678 982,683 982,693 C 982,703 977.615,708 964.461,718 L 876.769,718 L 859.23,693 L 876.769,668"/>
    <text font-size="12.8" style="fill: #000000;text-anchor:middle;font-family:sans-serif;font-style:normal;font-weight:normal" x="920.615" y="689">
      <tspan x="920.615" y="689">matplotlib</tspan>
      <tspan x="920.615" y="705">plot</tspan>
    </text>
  </g>
  <g>
    <path style="fill: #e2ff9d" d="M 875.478 746.41 L 970.428,746.41 C 984.67,757.21 989.418,762.61 989.418,773.41 C 989.418,784.21 984.67,789.61 970.428,800.41 L 875.478,800.41 L 856.488,773.41 L 875.478,746.41z"/>
    <path style="fill: none; fill-opacity:0; stroke-width: 2; stroke: #000000" d="M 875.478 746.41 L 970.428,746.41 C 984.67,757.21 989.418,762.61 989.418,773.41 C 989.418,784.21 984.67,789.61 970.428,800.41 L 875.478,800.41 L 856.488,773.41 L 875.478,746.41"/>
    <text font-size="12.8" style="fill: #000000;text-anchor:middle;font-family:sans-serif;font-style:normal;font-weight:normal" x="922.953" y="761.41">
      <tspan x="922.953" y="761.41">d3js</tspan>
      <tspan x="922.953" y="777.41">force directed</tspan>
      <tspan x="922.953" y="793.41">plot</tspan>
    </text>
  </g>
  <g>
    <path style="fill: #e2ff9d" d="M 876.876 828.82 L 934.576,828.82 C 943.231,836.82 946.116,840.82 946.116,848.82 C 946.116,856.82 943.231,860.82 934.576,868.82 L 876.876,868.82 L 865.336,848.82 L 876.876,828.82z"/>
    <path style="fill: none; fill-opacity:0; stroke-width: 2; stroke: #000000" d="M 876.876 828.82 L 934.576,828.82 C 943.231,836.82 946.116,840.82 946.116,848.82 C 946.116,856.82 943.231,860.82 934.576,868.82 L 876.876,868.82 L 865.336,848.82 L 876.876,828.82"/>
    <text font-size="12.8" style="fill: #000000;text-anchor:middle;font-family:sans-serif;font-style:normal;font-weight:normal" x="905.726" y="852.82">
      <tspan x="905.726" y="852.82">hiveplot</tspan>
    </text>
  </g>
  <g>
    <line style="fill: none; fill-opacity:0; stroke-width: 2; stroke: #000000" x1="718.793" y1="733.876" x2="857.823" y2="707.969"/>
    <polygon style="fill: #000000" points="865.196,706.595 856.281,713.342 857.823,707.969 854.449,703.511 "/>
    <polygon style="fill: none; fill-opacity:0; stroke-width: 2; stroke: #000000" points="865.196,706.595 856.281,713.342 857.823,707.969 854.449,703.511 "/>
  </g>
  <g>
    <line style="fill: none; fill-opacity:0; stroke-width: 2; stroke: #000000" x1="716.977" y1="743.752" x2="852.979" y2="761.682"/>
    <polygon style="fill: #000000" points="860.414,762.662 849.847,766.312 852.979,761.682 851.154,756.398 "/>
    <polygon style="fill: none; fill-opacity:0; stroke-width: 2; stroke: #000000" points="860.414,762.662 849.847,766.312 852.979,761.682 851.154,756.398 "/>
  </g>
  <g>
    <line style="fill: none; fill-opacity:0; stroke-width: 2; stroke: #000000" x1="711.918" y1="751.598" x2="866.774" y2="824.915"/>
    <polygon style="fill: #000000" points="873.553,828.124 862.375,828.364 866.774,824.915 866.654,819.326 "/>
    <polygon style="fill: none; fill-opacity:0; stroke-width: 2; stroke: #000000" points="873.553,828.124 862.375,828.364 866.774,824.915 866.654,819.326 "/>
  </g>
  <g>
    <line style="fill: none; fill-opacity:0; stroke-width: 2; stroke: #000000" x1="686.17" y1="761.99" x2="677.514" y2="993.331"/>
    <polygon style="fill: #000000" points="677.234,1000.83 672.611,990.646 677.514,993.331 682.604,991.02 "/>
    <polygon style="fill: none; fill-opacity:0; stroke-width: 2; stroke: #000000" points="677.234,1000.83 672.611,990.646 677.514,993.331 682.604,991.02 "/>
  </g>
  <g>
    <line style="fill: none; fill-opacity:0; stroke-width: 2; stroke: #000000" x1="676.96" y1="760.577" x2="564.024" y2="994.294"/>
    <polygon style="fill: #000000" points="560.761,1001.05 560.61,989.868 564.024,994.294 569.614,994.218 "/>
    <polygon style="fill: none; fill-opacity:0; stroke-width: 2; stroke: #000000" points="560.761,1001.05 560.61,989.868 564.024,994.294 569.614,994.218 "/>
  </g>
  <g>
    <rect style="fill: #e2ff9d" x="764.52" y="1000.36" width="92.6" height="54"/>
    <rect style="fill: none; fill-opacity:0; stroke-width: 2; stroke: #000000" x="764.52" y="1000.36" width="92.6" height="54"/>
    <text font-size="12.8" style="fill: #000000;text-anchor:middle;font-family:sans-serif;font-style:normal;font-weight:normal" x="810.82" y="1023.26">
      <tspan x="810.82" y="1023.26">export to</tspan>
      <tspan x="810.82" y="1039.26">edgelist</tspan>
    </text>
  </g>
  <g>
    <line style="fill: none; fill-opacity:0; stroke-width: 2; stroke: #000000" x1="696.56" y1="762.002" x2="794.923" y2="990.439"/>
    <polygon style="fill: #000000" points="797.889,997.328 789.342,990.12 794.923,990.439 798.527,986.166 "/>
    <polygon style="fill: none; fill-opacity:0; stroke-width: 2; stroke: #000000" points="797.889,997.328 789.342,990.12 794.923,990.439 798.527,986.166 "/>
  </g>
  <g>
    <path style="fill: #e2ff9d" d="M 266.86 708.108 L 554.276,708.108 L 496.793,748.108 L 324.343,748.108 L 266.86,708.108z"/>
    <path style="fill: none; fill-opacity:0; stroke-width: 2; stroke: #000000" d="M 266.86 708.108 L 554.276,708.108 L 496.793,748.108 L 324.343,748.108 L 266.86,708.108"/>
    <text font-size="12.8" style="fill: #000000;text-anchor:middle;font-family:sans-serif;font-style:normal;font-weight:normal" x="410.568" y="732.108">
      <tspan x="410.568" y="732.108">Search in mongodb cache</tspan>
    </text>
  </g>
  <g>
    <line style="fill: none; fill-opacity:0; stroke-width: 2; stroke: #000000" x1="409.264" y1="608.456" x2="410.233" y2="697.384"/>
    <polygon style="fill: #000000" points="410.315,704.883 405.206,694.938 410.233,697.384 415.206,694.829 "/>
    <polygon style="fill: none; fill-opacity:0; stroke-width: 2; stroke: #000000" points="410.315,704.883 405.206,694.938 410.233,697.384 415.206,694.829 "/>
  </g>
  <g>
    <ellipse style="fill: #e2ff9d" cx="241.754" cy="677.958" rx="6" ry="6"/>
    <ellipse style="fill: none; fill-opacity:0; stroke-width: 2; stroke: #000000" cx="241.754" cy="677.958" rx="6" ry="6"/>
    <line style="fill: none; fill-opacity:0; stroke-width: 2; stroke: #000000" x1="217.754" y1="689.958" x2="265.754" y2="689.958"/>
    <line style="fill: none; fill-opacity:0; stroke-width: 2; stroke: #000000" x1="241.754" y1="683.958" x2="241.754" y2="713.958"/>
    <line style="fill: none; fill-opacity:0; stroke-width: 2; stroke: #000000" x1="241.754" y1="713.958" x2="217.754" y2="739.958"/>
    <line style="fill: none; fill-opacity:0; stroke-width: 2; stroke: #000000" x1="241.754" y1="713.958" x2="265.754" y2="739.958"/>
    <text font-size="12.8" style="fill: #000000;text-anchor:middle;font-family:sans-serif;font-style:normal;font-weight:normal" x="241.754" y="763.858">
      <tspan x="241.754" y="763.858">User</tspan>
    </text>
  </g>
  <text font-size="12.8" style="fill: #000000;text-anchor:start;font-family:sans-serif;font-style:normal;font-weight:normal" x="875.714" y="650.844">
    <tspan x="875.714" y="650.844">Network display</tspan>
  </text>
</svg>
