<?xml version="1.0" encoding="UTF-8"?><svg xmlns="http://www.w3.org/2000/svg" xmlns:xlink="http://www.w3.org/1999/xlink" fill-opacity="1" color-rendering="auto" color-interpolation="auto" text-rendering="auto" stroke="black" stroke-linecap="square" width="812" stroke-miterlimit="10" shape-rendering="auto" stroke-opacity="1" fill="black" stroke-dasharray="none" font-weight="normal" stroke-width="1" height="1281" font-family="'Dialog'" font-style="normal" stroke-linejoin="miter" font-size="12px" stroke-dashoffset="0" image-rendering="auto">
  <!--Generated by ySVG 2.5-->
  <defs id="genericDefs"/>
  <g>
    <defs id="defs1">
      <clipPath clipPathUnits="userSpaceOnUse" id="clipPath1">
        <path d="M0 0 L812 0 L812 1281 L0 1281 L0 0 Z"/>
      </clipPath>
      <clipPath clipPathUnits="userSpaceOnUse" id="clipPath2">
        <path d="M114 -393 L926 -393 L926 888 L114 888 L114 -393 Z"/>
      </clipPath>
    </defs>
    <g fill="white" text-rendering="geometricPrecision" shape-rendering="geometricPrecision" transform="translate(-114,393)" stroke="white">
      <rect x="114" width="812" height="1281" y="-393" clip-path="url(#clipPath2)" stroke="none"/>
    </g>
    <g fill="rgb(255,204,0)" text-rendering="geometricPrecision" shape-rendering="geometricPrecision" transform="matrix(1,0,0,1,-114,393)" stroke="rgb(255,204,0)">
      <rect x="457.5" width="150" height="80" y="107" clip-path="url(#clipPath2)" stroke="none"/>
    </g>
    <g text-rendering="geometricPrecision" stroke-miterlimit="1.45" shape-rendering="geometricPrecision" font-family="sans-serif" transform="matrix(1,0,0,1,-114,393)" stroke-linecap="butt">
      <text x="512.3701" xml:space="preserve" y="151.1543" clip-path="url(#clipPath2)" stroke="none">Mongo</text>
      <rect fill="none" x="457.5" width="150" height="80" y="107" clip-path="url(#clipPath2)"/>
    </g>
    <g fill="rgb(255,204,0)" text-rendering="geometricPrecision" shape-rendering="geometricPrecision" transform="matrix(1,0,0,1,-114,393)" stroke="rgb(255,204,0)">
      <rect x="757.01" width="150" height="80" y="107" clip-path="url(#clipPath2)" stroke="none"/>
    </g>
    <g text-rendering="geometricPrecision" stroke-miterlimit="1.45" shape-rendering="geometricPrecision" font-family="sans-serif" transform="matrix(1,0,0,1,-114,393)" stroke-linecap="butt">
      <text x="813.7756" xml:space="preserve" y="151.1543" clip-path="url(#clipPath2)" stroke="none">Query</text>
    </g>
    <g fill="yellow" text-rendering="geometricPrecision" shape-rendering="geometricPrecision" transform="matrix(1,0,0,1,-114,393)" stroke="yellow">
      <rect x="757.01" width="1" height="80" y="107" clip-path="url(#clipPath2)" stroke="none"/>
      <rect x="758.01" width="148" height="1" y="107" clip-path="url(#clipPath2)" stroke="none"/>
      <rect x="758.01" y="186" clip-path="url(#clipPath2)" fill="rgb(178,142,0)" width="149" height="1" stroke="none"/>
      <rect x="906.01" y="107" clip-path="url(#clipPath2)" fill="rgb(178,142,0)" width="1" height="79" stroke="none"/>
      <rect x="135.01" y="107" clip-path="url(#clipPath2)" fill="rgb(255,204,0)" width="150" height="80" stroke="none"/>
    </g>
    <g text-rendering="geometricPrecision" stroke-miterlimit="1.45" shape-rendering="geometricPrecision" font-family="sans-serif" transform="matrix(1,0,0,1,-114,393)" stroke-linecap="butt">
      <text x="185.4358" xml:space="preserve" y="137.1855" clip-path="url(#clipPath2)" stroke="none">Pubmed</text>
      <text x="143.6731" xml:space="preserve" y="151.1543" clip-path="url(#clipPath2)" stroke="none">-Descargar busqueda </text>
      <text x="151.4016" xml:space="preserve" y="165.123" clip-path="url(#clipPath2)" stroke="none">en formato Medline</text>
    </g>
    <g fill="yellow" text-rendering="geometricPrecision" shape-rendering="geometricPrecision" transform="matrix(1,0,0,1,-114,393)" stroke="yellow">
      <rect x="135.01" width="1" height="80" y="107" clip-path="url(#clipPath2)" stroke="none"/>
      <rect x="136.01" width="148" height="1" y="107" clip-path="url(#clipPath2)" stroke="none"/>
      <rect x="136.01" y="186" clip-path="url(#clipPath2)" fill="rgb(178,142,0)" width="149" height="1" stroke="none"/>
      <rect x="284.01" y="107" clip-path="url(#clipPath2)" fill="rgb(178,142,0)" width="1" height="79" stroke="none"/>
      <rect x="457.5" y="-377.4523" clip-path="url(#clipPath2)" fill="rgb(255,204,0)" width="150" height="80" stroke="none"/>
    </g>
    <g text-rendering="geometricPrecision" stroke-miterlimit="1.45" shape-rendering="geometricPrecision" font-family="sans-serif" transform="matrix(1,0,0,1,-114,393)" stroke-linecap="butt">
      <text x="499.541" xml:space="preserve" y="-333.298" clip-path="url(#clipPath2)" stroke="none">Busquedas</text>
    </g>
    <g fill="yellow" text-rendering="geometricPrecision" shape-rendering="geometricPrecision" transform="matrix(1,0,0,1,-114,393)" stroke="yellow">
      <rect x="457.5" width="1" height="80" y="-377.4523" clip-path="url(#clipPath2)" stroke="none"/>
      <rect x="458.5" width="148" height="1" y="-377.4523" clip-path="url(#clipPath2)" stroke="none"/>
      <rect x="458.5" y="-298.4523" clip-path="url(#clipPath2)" fill="rgb(178,142,0)" width="149" height="1" stroke="none"/>
      <rect x="606.5" y="-377.4523" clip-path="url(#clipPath2)" fill="rgb(178,142,0)" width="1" height="79" stroke="none"/>
      <rect x="135.01" y="367.9426" clip-path="url(#clipPath2)" fill="rgb(255,204,0)" width="150" height="80" stroke="none"/>
    </g>
    <g text-rendering="geometricPrecision" stroke-miterlimit="1.45" shape-rendering="geometricPrecision" font-family="sans-serif" transform="matrix(1,0,0,1,-114,393)" stroke-linecap="butt">
      <text x="191.0578" xml:space="preserve" y="398.1282" clip-path="url(#clipPath2)" stroke="none">Correr</text>
      <text x="171.7043" xml:space="preserve" y="412.0969" clip-path="url(#clipPath2)" stroke="none">-load_raw.py</text>
      <text x="131.7024" xml:space="preserve" y="426.0657" clip-path="url(#clipPath2)" stroke="none">-query2mesh_network.py </text>
    </g>
    <g fill="yellow" text-rendering="geometricPrecision" shape-rendering="geometricPrecision" transform="matrix(1,0,0,1,-114,393)" stroke="yellow">
      <rect x="135.01" width="1" height="80" y="367.9426" clip-path="url(#clipPath2)" stroke="none"/>
      <rect x="136.01" width="148" height="1" y="367.9426" clip-path="url(#clipPath2)" stroke="none"/>
      <rect x="136.01" y="446.9426" clip-path="url(#clipPath2)" fill="rgb(178,142,0)" width="149" height="1" stroke="none"/>
      <rect x="284.01" y="367.9426" clip-path="url(#clipPath2)" fill="rgb(178,142,0)" width="1" height="79" stroke="none"/>
      <rect x="457.5" y="367.9426" clip-path="url(#clipPath2)" fill="rgb(255,204,0)" width="150" height="80" stroke="none"/>
    </g>
    <g text-rendering="geometricPrecision" stroke-miterlimit="1.45" shape-rendering="geometricPrecision" font-family="sans-serif" transform="matrix(1,0,0,1,-114,393)" stroke-linecap="butt">
      <text x="513.5479" xml:space="preserve" y="405.1125" clip-path="url(#clipPath2)" stroke="none">Correr</text>
      <text x="456.0996" xml:space="preserve" y="419.0813" clip-path="url(#clipPath2)" stroke="none">-query2mesh_network.py</text>
    </g>
    <g fill="yellow" text-rendering="geometricPrecision" shape-rendering="geometricPrecision" transform="matrix(1,0,0,1,-114,393)" stroke="yellow">
      <rect x="457.5" width="1" height="80" y="367.9426" clip-path="url(#clipPath2)" stroke="none"/>
      <rect x="458.5" width="148" height="1" y="367.9426" clip-path="url(#clipPath2)" stroke="none"/>
      <rect x="458.5" y="446.9426" clip-path="url(#clipPath2)" fill="rgb(178,142,0)" width="149" height="1" stroke="none"/>
      <rect x="606.5" y="367.9426" clip-path="url(#clipPath2)" fill="rgb(178,142,0)" width="1" height="79" stroke="none"/>
      <rect x="757.01" y="367.9426" clip-path="url(#clipPath2)" fill="rgb(255,204,0)" width="150" height="80" stroke="none"/>
    </g>
    <g text-rendering="geometricPrecision" stroke-miterlimit="1.45" shape-rendering="geometricPrecision" font-family="sans-serif" transform="matrix(1,0,0,1,-114,393)" stroke-linecap="butt">
      <text x="813.0579" xml:space="preserve" y="405.1125" clip-path="url(#clipPath2)" stroke="none">Correr</text>
      <text x="755.6096" xml:space="preserve" y="419.0813" clip-path="url(#clipPath2)" stroke="none">-query2mesh_network.py</text>
    </g>
    <g fill="yellow" text-rendering="geometricPrecision" shape-rendering="geometricPrecision" transform="matrix(1,0,0,1,-114,393)" stroke="yellow">
      <rect x="757.01" width="1" height="80" y="367.9426" clip-path="url(#clipPath2)" stroke="none"/>
      <rect x="758.01" width="148" height="1" y="367.9426" clip-path="url(#clipPath2)" stroke="none"/>
      <rect x="758.01" y="446.9426" clip-path="url(#clipPath2)" fill="rgb(178,142,0)" width="149" height="1" stroke="none"/>
      <rect x="906.01" y="367.9426" clip-path="url(#clipPath2)" fill="rgb(178,142,0)" width="1" height="79" stroke="none"/>
      <rect x="457.5" y="603.7101" clip-path="url(#clipPath2)" fill="rgb(255,204,0)" width="150" height="80" stroke="none"/>
    </g>
    <g text-rendering="geometricPrecision" stroke-miterlimit="1.45" shape-rendering="geometricPrecision" font-family="sans-serif" transform="matrix(1,0,0,1,-114,393)" stroke-linecap="butt">
      <text x="493.5234" xml:space="preserve" y="647.8644" clip-path="url(#clipPath2)" stroke="none">Visualizacion</text>
    </g>
    <g fill="yellow" text-rendering="geometricPrecision" shape-rendering="geometricPrecision" transform="matrix(1,0,0,1,-114,393)" stroke="yellow">
      <rect x="457.5" width="1" height="80" y="603.7101" clip-path="url(#clipPath2)" stroke="none"/>
      <rect x="458.5" width="148" height="1" y="603.7101" clip-path="url(#clipPath2)" stroke="none"/>
      <rect x="458.5" y="682.7101" clip-path="url(#clipPath2)" fill="rgb(178,142,0)" width="149" height="1" stroke="none"/>
      <rect x="606.5" y="603.7101" clip-path="url(#clipPath2)" fill="rgb(178,142,0)" width="1" height="79" stroke="none"/>
      <rect x="748.5556" y="-88.4628" clip-path="url(#clipPath2)" fill="rgb(255,204,0)" width="150" height="80" stroke="none"/>
    </g>
    <g text-rendering="geometricPrecision" stroke-miterlimit="1.45" shape-rendering="geometricPrecision" font-family="sans-serif" transform="matrix(1,0,0,1,-114,393)" stroke-linecap="butt">
      <text x="773.0009" xml:space="preserve" y="-44.3085" clip-path="url(#clipPath2)" stroke="none">Relación por año</text>
    </g>
    <g fill="yellow" text-rendering="geometricPrecision" shape-rendering="geometricPrecision" transform="matrix(1,0,0,1,-114,393)" stroke="yellow">
      <rect x="748.5556" width="1" height="80" y="-88.4628" clip-path="url(#clipPath2)" stroke="none"/>
      <rect x="749.5556" width="148" height="1" y="-88.4628" clip-path="url(#clipPath2)" stroke="none"/>
      <rect x="749.5556" y="-9.4628" clip-path="url(#clipPath2)" fill="rgb(178,142,0)" width="149" height="1" stroke="none"/>
      <rect x="897.5556" y="-88.4628" clip-path="url(#clipPath2)" fill="rgb(178,142,0)" width="1" height="79" stroke="none"/>
      <rect x="135.01" y="-88.4628" clip-path="url(#clipPath2)" fill="rgb(255,204,0)" width="150" height="80" stroke="none"/>
    </g>
    <g text-rendering="geometricPrecision" stroke-miterlimit="1.45" shape-rendering="geometricPrecision" font-family="sans-serif" transform="matrix(1,0,0,1,-114,393)" stroke-linecap="butt">
      <text x="144.2912" xml:space="preserve" y="-51.2928" clip-path="url(#clipPath2)" stroke="none">Relación por criterios </text>
      <text x="171.0774" xml:space="preserve" y="-37.3241" clip-path="url(#clipPath2)" stroke="none">de búsqueda</text>
    </g>
    <g fill="yellow" text-rendering="geometricPrecision" shape-rendering="geometricPrecision" transform="matrix(1,0,0,1,-114,393)" stroke="yellow">
      <rect x="135.01" width="1" height="80" y="-88.4628" clip-path="url(#clipPath2)" stroke="none"/>
      <rect x="136.01" width="148" height="1" y="-88.4628" clip-path="url(#clipPath2)" stroke="none"/>
      <rect x="136.01" y="-9.4628" clip-path="url(#clipPath2)" fill="rgb(178,142,0)" width="149" height="1" stroke="none"/>
      <rect x="284.01" y="-88.4628" clip-path="url(#clipPath2)" fill="rgb(178,142,0)" width="1" height="79" stroke="none"/>
      <rect x="457.5" y="-88.4628" clip-path="url(#clipPath2)" fill="rgb(255,204,0)" width="150" height="80" stroke="none"/>
    </g>
    <g text-rendering="geometricPrecision" stroke-miterlimit="1.45" shape-rendering="geometricPrecision" font-family="sans-serif" transform="matrix(1,0,0,1,-114,393)" stroke-linecap="butt">
      <text x="493.0957" xml:space="preserve" y="-51.2928" clip-path="url(#clipPath2)" stroke="none">Relación por </text>
      <text x="498.5537" xml:space="preserve" y="-37.3241" clip-path="url(#clipPath2)" stroke="none">meshterms</text>
    </g>
    <g fill="yellow" text-rendering="geometricPrecision" shape-rendering="geometricPrecision" transform="matrix(1,0,0,1,-114,393)" stroke="yellow">
      <rect x="457.5" width="1" height="80" y="-88.4628" clip-path="url(#clipPath2)" stroke="none"/>
      <rect x="458.5" width="148" height="1" y="-88.4628" clip-path="url(#clipPath2)" stroke="none"/>
      <rect x="458.5" y="-9.4628" clip-path="url(#clipPath2)" fill="rgb(178,142,0)" width="149" height="1" stroke="none"/>
      <rect x="606.5" y="-88.4628" clip-path="url(#clipPath2)" fill="rgb(178,142,0)" width="1" height="79" stroke="none"/>
      <rect x="258.9235" y="792.8003" clip-path="url(#clipPath2)" fill="rgb(255,204,0)" width="150" height="80" stroke="none"/>
    </g>
    <g text-rendering="geometricPrecision" stroke-miterlimit="1.45" shape-rendering="geometricPrecision" font-family="sans-serif" transform="matrix(1,0,0,1,-114,393)" stroke-linecap="butt">
      <text x="302.5085" xml:space="preserve" y="829.9702" clip-path="url(#clipPath2)" stroke="none">Red en 3D</text>
      <text x="279.4665" xml:space="preserve" y="843.939" clip-path="url(#clipPath2)" stroke="none">-force_directed.py</text>
    </g>
    <g fill="yellow" text-rendering="geometricPrecision" shape-rendering="geometricPrecision" transform="matrix(1,0,0,1,-114,393)" stroke="yellow">
      <rect x="258.9235" width="1" height="80" y="792.8003" clip-path="url(#clipPath2)" stroke="none"/>
      <rect x="259.9235" width="148" height="1" y="792.8003" clip-path="url(#clipPath2)" stroke="none"/>
      <rect x="259.9235" y="871.8003" clip-path="url(#clipPath2)" fill="rgb(178,142,0)" width="149" height="1" stroke="none"/>
      <rect x="407.9235" y="792.8003" clip-path="url(#clipPath2)" fill="rgb(178,142,0)" width="1" height="79" stroke="none"/>
      <rect x="457.5" y="792.8003" clip-path="url(#clipPath2)" fill="rgb(255,204,0)" width="150" height="80" stroke="none"/>
    </g>
    <g text-rendering="geometricPrecision" stroke-miterlimit="1.45" shape-rendering="geometricPrecision" font-family="sans-serif" transform="matrix(1,0,0,1,-114,393)" stroke-linecap="butt">
      <text x="501.085" xml:space="preserve" y="829.9702" clip-path="url(#clipPath2)" stroke="none">Red en 2D</text>
      <text x="496.8574" xml:space="preserve" y="843.939" clip-path="url(#clipPath2)" stroke="none">-hiveplot.py</text>
    </g>
    <g fill="yellow" text-rendering="geometricPrecision" shape-rendering="geometricPrecision" transform="matrix(1,0,0,1,-114,393)" stroke="yellow">
      <rect x="457.5" width="1" height="80" y="792.8003" clip-path="url(#clipPath2)" stroke="none"/>
      <rect x="458.5" width="148" height="1" y="792.8003" clip-path="url(#clipPath2)" stroke="none"/>
      <rect x="458.5" y="871.8003" clip-path="url(#clipPath2)" fill="rgb(178,142,0)" width="149" height="1" stroke="none"/>
      <rect x="606.5" y="792.8003" clip-path="url(#clipPath2)" fill="rgb(178,142,0)" width="1" height="79" stroke="none"/>
      <rect x="665.8246" y="792.8003" clip-path="url(#clipPath2)" fill="rgb(255,204,0)" width="150" height="80" stroke="none"/>
    </g>
    <g text-rendering="geometricPrecision" stroke-miterlimit="1.45" shape-rendering="geometricPrecision" font-family="sans-serif" transform="matrix(1,0,0,1,-114,393)" stroke-linecap="butt">
      <text x="684.8236" xml:space="preserve" y="829.9702" clip-path="url(#clipPath2)" stroke="none">Red en 2D sin ejes</text>
      <text x="672.9144" xml:space="preserve" y="843.939" clip-path="url(#clipPath2)" stroke="none">-plot_pickled_graph.py</text>
    </g>
    <g fill="yellow" text-rendering="geometricPrecision" shape-rendering="geometricPrecision" transform="matrix(1,0,0,1,-114,393)" stroke="yellow">
      <rect x="665.8246" width="1" height="80" y="792.8003" clip-path="url(#clipPath2)" stroke="none"/>
      <rect x="666.8246" width="148" height="1" y="792.8003" clip-path="url(#clipPath2)" stroke="none"/>
      <rect x="666.8246" y="871.8003" clip-path="url(#clipPath2)" fill="rgb(178,142,0)" width="149" height="1" stroke="none"/>
      <rect x="814.8246" y="792.8003" clip-path="url(#clipPath2)" fill="rgb(178,142,0)" width="1" height="79" stroke="none"/>
      <rect x="457.5" y="-232.9575" clip-path="url(#clipPath2)" fill="rgb(255,204,0)" width="150" height="80" stroke="none"/>
    </g>
    <g text-rendering="geometricPrecision" stroke-miterlimit="1.45" shape-rendering="geometricPrecision" font-family="sans-serif" transform="matrix(1,0,0,1,-114,393)" stroke-linecap="butt">
      <text x="498.4072" xml:space="preserve" y="-188.8032" clip-path="url(#clipPath2)" stroke="none">Tipo de red</text>
    </g>
    <g fill="yellow" text-rendering="geometricPrecision" shape-rendering="geometricPrecision" transform="matrix(1,0,0,1,-114,393)" stroke="yellow">
      <rect x="457.5" width="1" height="80" y="-232.9575" clip-path="url(#clipPath2)" stroke="none"/>
      <rect x="458.5" width="148" height="1" y="-232.9575" clip-path="url(#clipPath2)" stroke="none"/>
      <rect x="458.5" y="-153.9575" clip-path="url(#clipPath2)" fill="rgb(178,142,0)" width="149" height="1" stroke="none"/>
      <rect x="606.5" y="-232.9575" clip-path="url(#clipPath2)" fill="rgb(178,142,0)" width="1" height="79" stroke="none"/>
    </g>
    <g text-rendering="geometricPrecision" stroke-miterlimit="1.45" shape-rendering="geometricPrecision" transform="matrix(1,0,0,1,-114,393)" stroke-linecap="butt">
      <path fill="none" d="M210.01 186.976 L210.01 359.9409" clip-path="url(#clipPath2)"/>
      <path d="M210.01 367.9409 L215.01 355.9409 L210.01 358.9409 L205.01 355.9409 Z" clip-path="url(#clipPath2)" stroke="none"/>
      <path fill="none" d="M532.5 187 L532.5 359.9453" clip-path="url(#clipPath2)"/>
      <path d="M532.5 367.9453 L537.5 355.9453 L532.5 358.9453 L527.5 355.9453 Z" clip-path="url(#clipPath2)" stroke="none"/>
      <path fill="none" d="M832.01 186.976 L832.01 359.9409" clip-path="url(#clipPath2)"/>
      <path d="M832.01 367.9409 L837.01 355.9409 L832.01 358.9409 L827.01 355.9409 Z" clip-path="url(#clipPath2)" stroke="none"/>
      <path fill="none" d="M264.69 447.9183 L471.3487 599.0033" clip-path="url(#clipPath2)"/>
      <path d="M477.8069 603.7248 L471.0706 592.6062 L470.5414 598.4131 L465.1687 600.6789 Z" clip-path="url(#clipPath2)" stroke="none"/>
      <path fill="none" d="M532.5 447.9183 L532.5 595.7009" clip-path="url(#clipPath2)"/>
      <path d="M532.5 603.7009 L537.5 591.7009 L532.5 594.7009 L527.5 591.7009 Z" clip-path="url(#clipPath2)" stroke="none"/>
      <path fill="none" d="M781.2264 447.9183 L589.5819 598.7765" clip-path="url(#clipPath2)"/>
      <path d="M583.2958 603.7247 L595.8176 600.2311 L590.3677 598.158 L589.6323 592.3735 Z" clip-path="url(#clipPath2)" stroke="none"/>
      <path fill="none" d="M532.5 -8.4253 L532.5 99" clip-path="url(#clipPath2)"/>
      <path d="M532.5 107 L537.5 95 L532.5 98 L527.5 95 Z" clip-path="url(#clipPath2)" stroke="none"/>
      <path fill="none" d="M593.8133 -8.4492 L764.0457 102.6459" clip-path="url(#clipPath2)"/>
      <path d="M770.7453 107.0181 L763.4286 96.2726 L763.2083 102.0994 L757.9634 104.6471 Z" clip-path="url(#clipPath2)" stroke="none"/>
      <path fill="none" d="M466.4825 -8.4492 L282.8167 102.8715" clip-path="url(#clipPath2)"/>
      <path d="M275.9753 107.0181 L288.8291 105.0741 L283.6719 102.3532 L283.6458 96.5223 Z" clip-path="url(#clipPath2)" stroke="none"/>
      <path fill="none" d="M490.4916 683.7117 L381.7068 787.2997" clip-path="url(#clipPath2)"/>
      <path d="M375.9133 792.8165 L388.0516 788.1623 L382.431 786.6101 L381.1556 780.9203 Z" clip-path="url(#clipPath2)" stroke="none"/>
      <path fill="none" d="M532.5 683.7348 L532.5 784.8044" clip-path="url(#clipPath2)"/>
      <path d="M532.5 792.8044 L537.5 780.8044 L532.5 783.8044 L527.5 780.8044 Z" clip-path="url(#clipPath2)" stroke="none"/>
      <path fill="none" d="M576.5706 683.7117 L690.8499 787.4397" clip-path="url(#clipPath2)"/>
      <path d="M696.7736 792.8165 L691.2485 781.049 L690.1094 786.7676 L684.5275 788.4536 Z" clip-path="url(#clipPath2)" stroke="none"/>
      <path fill="none" d="M532.5 -297.4834 L532.5 -240.9458" clip-path="url(#clipPath2)"/>
      <path d="M532.5 -232.9458 L537.5 -244.9458 L532.5 -241.9458 L527.5 -244.9458 Z" clip-path="url(#clipPath2)" stroke="none"/>
      <path fill="none" d="M607.5023 -155.7226 L741.4096 -89.2442" clip-path="url(#clipPath2)"/>
      <path d="M748.5751 -85.6868 L740.0502 -95.5014 L740.5139 -89.6889 L735.6035 -86.5444 Z" clip-path="url(#clipPath2)" stroke="none"/>
      <path fill="none" d="M532.5 -152.9886 L532.5 -96.4511" clip-path="url(#clipPath2)"/>
      <path d="M532.5 -88.4511 L537.5 -100.4511 L532.5 -97.4511 L527.5 -100.4511 Z" clip-path="url(#clipPath2)" stroke="none"/>
      <path fill="none" d="M457.5069 -159.3561 L292.3271 -85.3457" clip-path="url(#clipPath2)"/>
      <path d="M285.0265 -82.0746 L298.0219 -82.4184 L293.2397 -85.7546 L293.933 -91.5442 Z" clip-path="url(#clipPath2)" stroke="none"/>
    </g>
  </g>
</svg>
